<?xml version="1.0" encoding="UTF-8" standalone="no"?>
<svg
   xmlns:dc="http://purl.org/dc/elements/1.1/"
   xmlns:cc="http://creativecommons.org/ns#"
   xmlns:rdf="http://www.w3.org/1999/02/22-rdf-syntax-ns#"
   xmlns:svg="http://www.w3.org/2000/svg"
   xmlns="http://www.w3.org/2000/svg"
   id="svg8"
   version="1.1"
   viewBox="0 0 210.69559 84.723273"
   height="84.723274mm"
   width="210.69559mm">
  <defs
     id="defs2" />
  <metadata
     id="metadata5">
    <rdf:RDF>
      <cc:Work
         rdf:about="">
        <dc:format>image/svg+xml</dc:format>
        <dc:type
           rdf:resource="http://purl.org/dc/dcmitype/StillImage" />
        <dc:title></dc:title>
      </cc:Work>
    </rdf:RDF>
  </metadata>
  <g
     transform="translate(-47.959687,-68.26985)"
     id="layer1">
     <style>
     @media (prefers-color-scheme: dark) {
      path {
        filter: invert();
      }
    }
     </style>
    <path
       transform="matrix(0.26458333,0,0,0.26458333,47.959687,68.26985)"
       id="text25"
       d="M 154.4082 0 C 141.83462 0 129.85727 1.2271118 118.4707 3.6738281 C 119.84748 4.5853993 121.09793 6.0306973 123.43555 9.1875 C 127.01565 14.022154 132.77536 19.688394 134.08594 19.666016 C 134.53756 19.658079 135.97105 19.395955 137.27148 19.082031 C 140.3647 18.335136 142.30148 18.354218 145.16797 19.158203 C 146.45977 19.520546 147.99733 19.812136 148.58398 19.806641 C 150.87001 19.786609 156.30159 15.381191 159.91797 10.617188 C 161.84229 8.0821903 164.14734 6.0307331 166.10742 5.109375 C 169.2132 3.6494796 170.17948 4.0826487 171.83594 7.6757812 C 172.70144 9.553152 172.73959 10.050813 172.76172 20.074219 C 172.77495 25.817831 172.82209 34.065579 172.86914 38.400391 C 172.9162 42.735206 172.77317 47.691237 172.55078 49.414062 C 172.01925 53.531068 170.4975 59.177304 168.96094 62.732422 C 167.51303 66.082376 167.09427 69.735135 167.79492 72.908203 C 168.05476 74.085137 168.34441 75.491351 168.4375 76.033203 C 168.53055 76.575055 169.04473 78.880464 169.58203 81.15625 C 170.2502 83.986379 170.69172 87.053645 170.92969 90.082031 C 174.29634 90.369912 177.75763 90.90738 181.31836 91.708984 L 185.24414 84.9375 L 186.16992 79.302734 C 186.67832 76.204195 187.27793 73.326808 187.50195 72.908203 C 188.58771 70.879428 192.3295 69.499884 195.62891 69.912109 C 198.34712 70.251813 201.65571 72.238263 202.67773 74.142578 L 203.45703 75.59375 L 202.40039 82.029297 C 201.81887 85.569146 200.96289 89.326048 200.49805 90.376953 C 200.16799 91.12307 198.77828 93.622505 197.05078 96.671875 C 199.48342 97.642149 201.9522 98.707881 204.46289 99.884766 L 204.46289 9.1621094 C 186.13941 3.0542835 169.45431 0 154.4082 0 z M 111.71094 5.2871094 C 85.989212 12.06046 63.425355 25.342804 44.021484 45.138672 C 14.674126 75.230887 1.018191e-16 112.91974 0 158.20703 C 0 203.34535 14.451118 241.6315 43.351562 273.06445 C 72.252007 304.49741 107.40823 320.21484 148.82227 320.21484 C 180.70214 320.21484 207.51776 310.08432 229.26758 289.82422 C 251.16637 269.56411 262.11523 244.53646 262.11523 214.74219 C 262.11523 189.11911 252.80501 164.76244 234.18359 141.67188 L 158.04297 141.67188 C 154.24499 153.08795 152.95858 159.13207 151.85547 170.01953 C 151.08349 177.63895 149.83102 186.36561 148.82812 191.10352 C 148.30924 193.55477 147.97536 196.95562 147.86133 200.95508 C 147.82359 202.27877 147.76957 203.40886 147.70508 204.46289 L 147.70508 210.94336 L 169.38086 210.94336 C 178.31914 210.94336 182.78711 213.922 182.78711 219.88086 C 182.78711 227.77634 176.00952 231.72461 162.45312 231.72461 C 147.12071 231.72461 134.07824 228.42661 123.29883 221.86719 C 122.71152 221.82749 122.16819 221.78538 121.4707 221.75586 C 118.21579 221.61866 117.27837 221.43581 116.3125 220.74805 C 115.26422 220.00159 114.55203 219.89989 109.95703 219.84766 C 105.32627 219.79474 104.59181 219.88227 102.95312 220.67578 C 101.26527 221.49288 100.77862 221.54222 96.734375 221.30078 C 94.321339 221.1564 91.638448 220.86475 90.771484 220.65234 C 89.904529 220.43993 88.621334 220.16651 87.919922 220.04492 C 87.21851 219.92322 85.444523 219.46535 83.978516 219.02734 C 82.512516 218.58933 80.336617 218.00145 79.144531 217.7207 C 75.189225 216.78913 68.346134 214.68225 66.9375 213.96289 C 64.784386 212.86331 60.623389 209.68266 60.619141 209.13281 C 60.617651 208.86144 59.898531 206.86663 59.021484 204.69922 C 58.14446 202.53177 57.244198 199.78676 57.019531 198.59961 C 56.794876 197.41246 55.934073 194.22005 55.107422 191.50586 C 51.300754 179.00719 51.150635 171.20874 54.535156 161.66797 C 56.568761 155.93537 57.298907 152.21784 57.65625 145.78516 C 58.387267 132.62594 60.327549 126.3565 67.996094 112.35352 C 74.879607 99.784005 83.204109 91.636624 97.214844 83.755859 C 102.69071 80.675783 104.40457 78.964897 105.55078 75.441406 C 106.04433 73.924232 107.13004 71.318277 107.96289 69.650391 C 108.79573 67.982459 109.55968 65.943713 109.66211 65.119141 C 109.76756 64.270251 109.42891 61.758595 108.88086 59.330078 C 107.72708 54.21747 107.64103 50.050741 108.54688 43.195312 C 109.01532 39.650172 109.1135 36.96104 108.92383 32.882812 C 108.78217 29.836181 108.84385 25.776884 109.0625 23.818359 C 109.28035 21.86767 109.56197 18.497524 109.6875 16.330078 C 110.08232 9.5127086 110.36347 7.7238272 111.71094 5.2871094 z M 561.17383 179.31641 L 561.17383 259.29688 C 561.17383 273.16406 563.97331 284.29687 569.57227 292.69531 C 573.99935 299.27083 579.85872 304.47917 587.15039 308.32031 C 594.50716 312.16146 602.31966 314.08203 610.58789 314.08203 C 611.49935 314.08203 612.89909 314.04948 614.78711 313.98438 L 614.78711 275.60547 C 608.27669 275.60547 603.78451 274.14063 601.31055 271.21094 C 598.90169 268.28125 597.69727 262.94271 597.69727 255.19531 L 614.10352 255.19531 L 614.10352 216.62109 L 597.69727 216.62109 L 597.69727 179.31641 L 561.17383 179.31641 z M 389.39648 213.10547 C 374.94336 213.10547 362.73633 218.02083 352.77539 227.85156 C 342.87956 237.68229 337.93164 249.72656 337.93164 263.98438 C 337.93164 278.30729 342.847 290.31901 352.67773 300.01953 C 362.50846 309.72005 374.65039 314.57031 389.10352 314.57031 C 400.95247 314.57031 411.72721 310.76172 421.42773 303.14453 L 400.62695 278.14453 C 397.24154 281.79036 393.72591 283.61328 390.08008 283.61328 C 385.58789 283.61328 381.94206 281.66016 379.14258 277.75391 C 376.4082 273.84766 375.04102 268.73698 375.04102 262.42188 C 375.04102 256.36719 376.47331 251.41927 379.33789 247.57812 C 382.20247 243.67187 385.91341 241.71875 390.4707 241.71875 C 397.30664 241.71875 401.37565 245.33203 402.67773 252.55859 L 384.12305 252.55859 C 382.95117 255.68359 382.36523 258.8737 382.36523 262.12891 C 382.36523 264.47266 382.78841 267.04427 383.63477 269.84375 L 439.00586 269.84375 C 439.26628 266.71875 439.39648 264.4401 439.39648 263.00781 C 439.39648 248.94531 434.57878 237.12891 424.94336 227.55859 C 415.37305 217.92318 403.52409 213.10547 389.39648 213.10547 z M 500.33398 213.10547 C 485.88086 213.10547 473.67383 218.02083 463.71289 227.85156 C 453.81706 237.68229 448.86914 249.72656 448.86914 263.98438 C 448.86914 278.30729 453.7845 290.31901 463.61523 300.01953 C 473.44596 309.72005 485.58789 314.57031 500.04102 314.57031 C 511.88997 314.57031 522.66471 310.76172 532.36523 303.14453 L 511.56445 278.14453 C 508.17904 281.79036 504.66341 283.61328 501.01758 283.61328 C 496.52539 283.61328 492.87956 281.66016 490.08008 277.75391 C 487.3457 273.84766 485.97852 268.73698 485.97852 262.42188 C 485.97852 256.36719 487.41081 251.41927 490.27539 247.57812 C 493.13997 243.67187 496.85091 241.71875 501.4082 241.71875 C 508.24414 241.71875 512.31315 245.33203 513.61523 252.55859 L 495.06055 252.55859 C 493.88867 255.68359 493.30273 258.8737 493.30273 262.12891 C 493.30273 264.47266 493.72591 267.04427 494.57227 269.84375 L 549.94336 269.84375 C 550.20378 266.71875 550.33398 264.4401 550.33398 263.00781 C 550.33398 248.94531 545.51628 237.12891 535.88086 227.55859 C 526.31055 217.92318 514.46159 213.10547 500.33398 213.10547 z M 678.06836 213.10547 C 663.61523 213.10547 651.4082 218.02083 641.44727 227.85156 C 631.55143 237.68229 626.60352 249.72656 626.60352 263.98438 C 626.60352 278.30729 631.51888 290.31901 641.34961 300.01953 C 651.18034 309.72005 663.32227 314.57031 677.77539 314.57031 C 689.62435 314.57031 700.39909 310.76172 710.09961 303.14453 L 689.29883 278.14453 C 685.91341 281.79036 682.39779 283.61328 678.75195 283.61328 C 674.25977 283.61328 670.61393 281.66016 667.81445 277.75391 C 665.08008 273.84766 663.71289 268.73698 663.71289 262.42188 C 663.71289 256.36719 665.14518 251.41927 668.00977 247.57812 C 670.87435 243.67187 674.58529 241.71875 679.14258 241.71875 C 685.97852 241.71875 690.04753 245.33203 691.34961 252.55859 L 672.79492 252.55859 C 671.62305 255.68359 671.03711 258.8737 671.03711 262.12891 C 671.03711 264.47266 671.46029 267.04427 672.30664 269.84375 L 727.67773 269.84375 C 727.93815 266.71875 728.06836 264.4401 728.06836 263.00781 C 728.06836 248.94531 723.25065 237.12891 713.61523 227.55859 C 704.04492 217.92318 692.19596 213.10547 678.06836 213.10547 z M 321.52539 213.20312 C 308.69987 213.20312 298.44596 217.40234 290.76367 225.80078 C 283.08138 234.13411 279.24023 245.33203 279.24023 259.39453 L 279.24023 312.61719 L 315.76367 312.61719 L 315.76367 266.42578 C 315.76367 256.26953 319.08398 251.19141 325.72461 251.19141 C 327.80794 251.19141 330.11914 251.90755 332.6582 253.33984 L 332.6582 214.27734 C 328.10091 213.5612 324.38997 213.20312 321.52539 213.20312 z M 785.19727 213.20312 C 772.37174 213.20312 762.11784 217.40234 754.43555 225.80078 C 746.75326 234.13411 742.91211 245.33203 742.91211 259.39453 L 742.91211 312.61719 L 779.43555 312.61719 L 779.43555 266.42578 C 779.43555 256.26953 782.75586 251.19141 789.39648 251.19141 C 791.47982 251.19141 793.79102 251.90755 796.33008 253.33984 L 796.33008 214.27734 C 791.77279 213.5612 788.06185 213.20312 785.19727 213.20312 z "
       style="font-style:normal;font-variant:normal;font-weight:normal;font-stretch:normal;font-size:121.08392334px;line-height:1.25;font-family:'Bauhaus 93';-inkscape-font-specification:'Bauhaus 93, Normal';font-variant-ligatures:normal;font-variant-caps:normal;font-variant-numeric:normal;font-feature-settings:normal;text-align:start;letter-spacing:0px;word-spacing:0px;writing-mode:lr-tb;text-anchor:start;fill:#000000;fill-opacity:1;stroke:none;stroke-width:61.38814926" />
    <flowRoot
       transform="scale(0.26458333)"
       style="font-style:normal;font-weight:normal;font-size:40px;line-height:1.25;font-family:sans-serif;letter-spacing:0px;word-spacing:0px;fill:#000000;fill-opacity:1;stroke:none"
       id="flowRoot27"
       xml:space="preserve"><flowRegion
         id="flowRegion29"><rect
           y="383.94824"
           x="107.14286"
           height="98.571426"
           width="38.57143"
           id="rect31" /></flowRegion><flowPara
         id="flowPara33"></flowPara></flowRoot>    <path
       id="path148"
       d=""
       style="fill:#000000;stroke-width:0.26458332" />
    <path
       id="path146"
       d=""
       style="fill:#000000;stroke-width:0.26458332" />
    <path
       id="path144"
       d=""
       style="fill:#000000;stroke-width:0.26458332" />
    <path
       id="path165"
       d=""
       style="fill:#000000;stroke-width:0.26458332" />
    <path
       id="path163"
       d=""
       style="fill:#000000;stroke-width:0.26458332" />
    <path
       id="path161"
       d=""
       style="fill:#000000;stroke-width:0.26458332" />
    <path
       id="path178"
       d=""
       style="fill:#000000;stroke-width:0.26458332" />
  </g>
</svg>
